<svg xmlns="http://www.w3.org/2000/svg" width="16" height="16" viewBox="0 0 16 16" fill="none">
  <path d="M4.7281 7.40069C4.85758 7.40069 4.95771 7.29858 4.97583 7.16583C5.1761 5.49677 5.21753 5.48377 6.84639 5.16073C6.90558 5.15378 6.96022 5.12324 6.99952 5.07513C7.03882 5.02703 7.05995 4.96483 7.05873 4.90081C7.05873 4.76156 6.96378 4.65295 6.84034 4.64089C5.22357 4.39953 5.1761 4.34847 4.97583 2.64135C4.95857 2.50211 4.86362 2.39999 4.7281 2.39999C4.59862 2.39999 4.50367 2.50211 4.4864 2.64785C4.2965 4.31691 4.23262 4.31691 2.61499 4.63996C2.48551 4.65852 2.39746 4.76064 2.39746 4.89988C2.39746 5.04655 2.48551 5.14123 2.63916 5.1598C4.23262 5.42715 4.2965 5.4847 4.4864 7.15284C4.50367 7.29951 4.59862 7.40069 4.7281 7.40069ZM8.88871 14.4C9.07085 14.4 9.21241 14.2607 9.24262 14.051C9.6725 10.6441 10.1145 10.1039 13.2608 9.72327C13.3512 9.71719 13.4361 9.67459 13.4986 9.60401C13.561 9.53343 13.5963 9.44008 13.5975 9.34267C13.5975 9.13845 13.455 8.98714 13.2608 8.95558C10.1447 8.55548 9.70185 8.0672 9.24176 4.62789C9.20723 4.42367 9.07085 4.28442 8.88785 4.28442C8.70485 4.28442 8.56329 4.42367 8.53394 4.62789C8.10234 8.04121 7.66038 8.58055 4.51575 8.95558C4.32067 8.98064 4.1791 9.13938 4.1791 9.34267C4.1791 9.53947 4.32067 9.69821 4.51575 9.72327C7.62499 10.18 8.05573 10.6181 8.53394 14.051C8.56847 14.2607 8.70572 14.4 8.88871 14.4Z" fill="#AFAFAF"/>
</svg>